<?xml version="1.0" encoding="UTF-8"?>
<!DOCTYPE svg PUBLIC "-//W3C//DTD SVG 1.1//EN" "http://www.w3.org/Graphics/SVG/1.1/DTD/svg11.dtd">
<svg xmlns="http://www.w3.org/2000/svg" version="1.1" width="333px" height="333px" style="shape-rendering:geometricPrecision; text-rendering:geometricPrecision; image-rendering:optimizeQuality; fill-rule:evenodd; clip-rule:evenodd" xmlns:xlink="http://www.w3.org/1999/xlink">
<g><path style="opacity:0.93" fill="#fb0000" d="M 191.5,306.5 C 189.466,305.546 187.466,304.546 185.5,303.5C 185.48,305.143 186.147,306.476 187.5,307.5C 185.659,308.23 183.825,308.897 182,309.5C 177.555,307.978 173.055,306.644 168.5,305.5C 166.167,304.167 163.833,304.167 161.5,305.5C 157.44,306.055 154.273,308.055 152,311.5C 151.667,311.167 151.333,310.833 151,310.5C 149.173,311.659 147.507,312.992 146,314.5C 145.667,314.167 145.333,313.833 145,313.5C 141.829,314.536 138.829,315.87 136,317.5C 129.916,316.358 123.749,316.191 117.5,317C 119.577,317.192 121.577,317.692 123.5,318.5C 117.141,321.001 110.807,320.835 104.5,318C 99.5641,315.067 94.8974,311.734 90.5,308C 84.8944,304.405 79.5611,304.739 74.5,309C 83.3588,310.428 84.6921,314.428 78.5,321C 65.7394,324.575 59.906,319.741 61,306.5C 59.513,305.747 59.3463,304.914 60.5,304C 59.8333,303.667 59.1667,303.333 58.5,303C 61.668,293.794 67.3347,291.794 75.5,297C 77.5,297.667 79.5,297.667 81.5,297C 75.8365,297.176 72.5032,294.509 71.5,289C 72.2341,286.439 73.5675,284.273 75.5,282.5C 74.1266,282.657 72.7932,282.49 71.5,282C 36.4504,255.664 15.7838,219.997 9.5,175C 10.8333,167 10.8333,159 9.5,151C 11.0155,145.077 12.3489,139.077 13.5,133C 13.3552,132.228 13.0219,131.561 12.5,131C 14.6154,127.62 16.1154,124.12 17,120.5C 17.8928,119.289 18.7261,119.289 19.5,120.5C 10.8456,148.793 11.679,176.793 22,204.5C 20.4629,196.611 19.1296,188.611 18,180.5C 15.7118,157.532 18.5452,135.365 26.5,114C 26.1667,113.667 25.8333,113.333 25.5,113C 27.1769,111.005 28.6769,108.839 30,106.5C 30.8699,107.108 31.3699,107.941 31.5,109C 15.9198,150.524 20.0864,190.024 44,227.5C 52.8409,242.673 64.6743,254.84 79.5,264C 82.639,265.728 85.9723,266.894 89.5,267.5C 90.2508,268.376 90.7508,269.376 91,270.5C 94.0349,266.964 97.8682,264.964 102.5,264.5C 108.373,266.301 114.373,267.468 120.5,268C 122.79,270.079 124.457,272.579 125.5,275.5C 126.54,273.625 128.04,272.292 130,271.5C 133.936,273.478 138.103,274.645 142.5,275C 144.5,275.667 145.833,277 146.5,279C 150.506,280.168 154.506,281.335 158.5,282.5C 162.909,280.082 167.575,279.249 172.5,280C 173.743,281.154 174.743,282.488 175.5,284C 214.814,283.768 244.98,267.268 266,234.5C 291.893,188.744 291.893,143.744 266,99.5C 252.936,79.2248 235.436,64.8915 213.5,56.5C 204.975,52.8256 196.142,50.8256 187,50.5C 183.313,47.508 179.479,45.508 175.5,44.5C 168.357,43.3568 161.024,43.3568 153.5,44.5C 152.148,43.1038 150.481,42.4371 148.5,42.5C 144.77,43.6605 141.104,43.6605 137.5,42.5C 136.881,39.8636 135.881,37.3636 134.5,35C 135.723,32.9479 136.723,30.7812 137.5,28.5C 147.064,25.7134 156.398,22.3801 165.5,18.5C 155.509,17.4172 145.509,16.4172 135.5,15.5C 137.944,11.0169 141.611,9.68352 146.5,11.5C 151.793,10.2718 157.126,9.77179 162.5,10C 162.167,10.3333 161.833,10.6667 161.5,11C 190.005,11.1259 216.672,18.1259 241.5,32C 250.57,38.0639 259.903,43.7305 269.5,49C 271.938,49.6821 274.105,49.1821 276,47.5C 277.261,47.7591 278.261,48.4258 279,49.5C 281.27,54.0978 283.937,58.4311 287,62.5C 293.408,68.2375 299.075,74.5709 304,81.5C 305.25,84.0766 305.584,86.7433 305,89.5C 303.168,88.1417 301.335,87.8084 299.5,88.5C 300.52,91.6048 301.687,94.6048 303,97.5C 303.833,96.5 304.667,95.5 305.5,94.5C 309.657,103.458 313.157,112.791 316,122.5C 316.798,124.259 316.631,125.926 315.5,127.5C 312.845,122.038 310.679,116.372 309,110.5C 310.661,121.829 312.661,133.163 315,144.5C 318.424,185.475 308.424,222.809 285,256.5C 270.838,274.832 253.671,287.665 233.5,295C 224.661,299.868 214.995,303.868 204.5,307C 200.129,307.629 195.796,307.463 191.5,306.5 Z M 147.5,106.5 C 149.144,106.286 150.644,106.62 152,107.5C 152.378,112.286 151.711,116.953 150,121.5C 140.795,127.157 136.962,124.49 138.5,113.5C 140.272,109.462 143.272,107.129 147.5,106.5 Z M 200.5,129.5 C 201.5,129.5 202.5,129.5 203.5,129.5C 203.264,131.973 201.931,133.64 199.5,134.5C 198.348,132.603 198.681,130.936 200.5,129.5 Z M 141.5,134.5 C 142.478,134.811 143.145,135.478 143.5,136.5C 142.442,140.283 140.609,143.617 138,146.5C 136.593,141.643 137.76,137.643 141.5,134.5 Z M 146.5,146.5 C 146.312,144.897 146.812,143.563 148,142.5C 148.773,144.352 148.273,145.686 146.5,146.5 Z M 118.5,147.5 C 119.497,147.47 120.164,147.97 120.5,149C 119.815,151.795 119.315,154.628 119,157.5C 117.683,158.68 117.516,160.18 118.5,162C 117.24,169.818 116.074,177.652 115,185.5C 114.692,186.308 114.192,186.975 113.5,187.5C 112.719,186.271 112.219,184.938 112,183.5C 111.333,175.167 111.333,166.833 112,158.5C 113.661,154.508 115.827,150.842 118.5,147.5 Z M 188.5,147.5 C 189.653,148.313 189.653,149.313 188.5,150.5C 187.167,151.5 185.833,152.5 184.5,153.5C 183.713,152.758 183.047,151.925 182.5,151C 184.257,149.25 186.257,148.084 188.5,147.5 Z M 97.5,151.5 C 99.3499,158.21 97.3499,163.543 91.5,167.5C 92.8156,162.256 94.8156,156.923 97.5,151.5 Z M 147.5,158.5 C 148.898,159.777 149.564,161.443 149.5,163.5C 149.843,173.838 149.343,184.504 148,195.5C 142.045,188.924 138.212,181.257 136.5,172.5C 139.428,167.24 143.095,162.574 147.5,158.5 Z M 184.5,164.5 C 186.167,164.5 187.833,164.5 189.5,164.5C 187.615,168.224 184.781,171.224 181,173.5C 179.463,169.626 180.63,166.626 184.5,164.5 Z M 77.5,279.5 C 77.573,281.027 76.9063,282.027 75.5,282.5C 75.427,280.973 76.0937,279.973 77.5,279.5 Z M 149.5,284.5 C 153.948,286.558 158.281,288.892 162.5,291.5C 159.15,292.843 155.817,294.177 152.5,295.5C 154.369,291.046 153.369,287.38 149.5,284.5 Z M 98.5,287.5 C 98.1667,288.5 97.5,289.167 96.5,289.5C 96.5,288.167 97.1667,287.5 98.5,287.5 Z M 86.5,289.5 C 87.9302,291.455 87.5969,293.121 85.5,294.5C 86.038,292.883 86.3713,291.216 86.5,289.5 Z M 141.5,289.5 C 141.167,290.5 140.5,291.167 139.5,291.5C 139.5,290.167 140.167,289.5 141.5,289.5 Z M 95.5,290.5 C 95.0269,291.906 94.0269,292.573 92.5,292.5C 92.9731,291.094 93.9731,290.427 95.5,290.5 Z M 139.5,291.5 C 139.688,294.206 140.688,296.539 142.5,298.5C 140.876,298.64 139.71,297.973 139,296.5C 138.22,294.613 138.387,292.946 139.5,291.5 Z M 117.5,299.5 C 117.722,296.924 119.055,296.09 121.5,297C 120.016,297.662 118.683,298.496 117.5,299.5 Z M 182.5,301.5 C 180.351,300.252 178.351,298.752 176.5,297C 179.724,296.786 181.724,298.286 182.5,301.5 Z M 90.5,299.5 C 92.5274,301.18 94.8608,302.347 97.5,303C 94.0063,303.92 91.673,302.754 90.5,299.5 Z M 182.5,301.5 C 184.027,301.427 185.027,302.094 185.5,303.5C 183.973,303.573 182.973,302.906 182.5,301.5 Z M 127.5,302.5 C 126.259,305.005 127.259,306.505 130.5,307C 126.56,307.114 122.893,306.28 119.5,304.5C 122.513,304.893 125.18,304.226 127.5,302.5 Z"/></g>
<g><path style="opacity:0.024" fill="#fe0000" d="M 137.5,42.5 C 136.833,43.1667 136.833,43.1667 137.5,42.5 Z"/></g>
<g><path style="opacity:0.024" fill="#fe0000" d="M 213.5,56.5 C 212.833,57.1667 212.833,57.1667 213.5,56.5 Z"/></g>
<g><path style="opacity:0.936" fill="#fb0000" d="M 193.5,65.5 C 197.79,64.9874 201.623,65.9874 205,68.5C 205.112,73.4995 204.779,78.4995 204,83.5C 203.108,86.9518 201.442,89.9518 199,92.5C 193.476,97.2682 188.143,102.268 183,107.5C 179.599,112.359 178.266,117.692 179,123.5C 181.23,127.962 182.897,132.628 184,137.5C 185.507,138.535 187.007,138.368 188.5,137C 191.237,133.933 193.571,130.599 195.5,127C 195.355,126.228 195.022,125.561 194.5,125C 192.5,124.667 190.5,124.333 188.5,124C 187.269,122.817 187.269,121.651 188.5,120.5C 193.848,116.576 199.681,113.576 206,111.5C 206.684,110.216 206.517,109.049 205.5,108C 202.11,107.754 198.777,107.254 195.5,106.5C 194.152,104.389 194.485,102.555 196.5,101C 200.626,98.8598 204.459,96.3598 208,93.5C 214.084,93.9204 219.918,95.4204 225.5,98C 227.871,99.7432 229.205,102.077 229.5,105C 224.944,114.618 220.778,124.451 217,134.5C 215.615,135.551 214.615,136.884 214,138.5C 212.442,137.655 211.442,138.321 211,140.5C 210.667,140.167 210.333,139.833 210,139.5C 203.664,144.341 197.497,149.341 191.5,154.5C 191.833,154.833 192.167,155.167 192.5,155.5C 200.189,152.07 208.023,149.07 216,146.5C 217.888,146.796 219.722,147.296 221.5,148C 222.554,149.388 222.72,150.888 222,152.5C 214.906,155.147 207.739,158.647 200.5,163C 194.584,166.454 189.251,170.62 184.5,175.5C 185.723,176.614 187.056,176.781 188.5,176C 201.89,170.592 215.556,166.092 229.5,162.5C 243.069,164.268 248.235,171.935 245,185.5C 241.719,202.03 239.385,218.697 238,235.5C 237.121,240.136 235.455,244.469 233,248.5C 228.268,252.369 223.935,251.702 220,246.5C 217.849,245.412 215.682,243.578 213.5,241C 207.161,236.655 201.495,231.655 196.5,226C 196.667,225.5 196.833,225 197,224.5C 207.222,230.637 216.555,229.637 225,221.5C 226.084,218.751 226.917,215.918 227.5,213C 228.447,208.246 228.447,203.579 227.5,199C 229.126,194.021 230.126,188.855 230.5,183.5C 230.399,180.652 230.399,177.819 230.5,175C 229.738,172.966 228.405,171.466 226.5,170.5C 210.675,174.561 195.842,179.895 182,186.5C 178.684,185.666 176.35,186.999 175,190.5C 173.192,190.112 171.525,190.112 170,190.5C 167.446,188.397 166.946,185.897 168.5,183C 164.916,177.353 163.249,171.353 163.5,165C 166.623,150.638 168.957,136.138 170.5,121.5C 169.579,116.794 168.413,111.794 167,106.5C 166.581,105.328 165.915,104.328 165,103.5C 161.286,112.832 159.62,122.498 160,132.5C 161.255,133.211 162.421,134.044 163.5,135C 162.478,137.545 161.312,140.045 160,142.5C 159.024,163.256 159.357,183.923 161,204.5C 161.561,205.022 162.228,205.355 163,205.5C 168.146,204.255 173.313,203.088 178.5,202C 188.5,197.333 198.5,192.667 208.5,188C 214.016,186.899 219.183,187.733 224,190.5C 224.982,191.759 225.315,193.092 225,194.5C 222.051,196.204 218.885,197.538 215.5,198.5C 214.808,199.025 214.308,199.692 214,200.5C 213.667,200.167 213.333,199.833 213,199.5C 207.666,201.66 202.332,203.66 197,205.5C 196.439,204.978 195.772,204.645 195,204.5C 185.571,206.719 176.071,208.552 166.5,210C 164.376,211.122 162.543,212.622 161,214.5C 160.028,218.143 159.194,221.81 158.5,225.5C 157.009,226.244 155.509,226.91 154,227.5C 153.519,225.522 152.353,224.189 150.5,223.5C 147.092,224.284 144.259,225.951 142,228.5C 140,227.167 138,227.167 136,228.5C 133.502,225.015 133.169,221.348 135,217.5C 136.826,215.926 138.993,215.093 141.5,215C 142.022,214.439 142.355,213.772 142.5,213C 142.304,210.7 140.97,208.7 138.5,207C 139.634,205.984 139.301,205.317 137.5,205C 138.299,203.251 137.632,201.918 135.5,201C 136.634,199.984 136.301,199.317 134.5,199C 134.957,198.586 135.291,198.086 135.5,197.5C 134.146,192.928 132.312,188.595 130,184.5C 127.693,190.392 125.693,196.392 124,202.5C 123.047,204.455 121.713,206.122 120,207.5C 117.123,205.413 114.956,202.746 113.5,199.5C 112.668,208.482 112.168,217.482 112,226.5C 109.75,230.291 107.25,230.291 104.5,226.5C 100.903,222.223 98.236,217.89 96.5,213.5C 96.0995,211.566 95.0995,210.066 93.5,209C 94.0219,208.439 94.3552,207.772 94.5,207C 93.1589,201.967 91.8256,196.967 90.5,192C 92.7567,192.437 95.09,192.937 97.5,193.5C 96.8856,188.595 96.8856,183.262 97.5,177.5C 91.035,180.276 85.035,183.943 79.5,188.5C 75.569,197.793 71.7356,207.126 68,216.5C 66.0188,218.657 63.6855,220.324 61,221.5C 58.6667,219.833 56.6667,217.833 55,215.5C 53.3252,209.722 51.1585,204.222 48.5,199C 58.2364,177.197 64.403,154.697 67,131.5C 67.6061,121.526 69.6061,111.859 73,102.5C 78.3692,98.1097 82.7025,99.1097 86,105.5C 87.3408,112.679 90.1742,119.179 94.5,125C 96.1667,125.667 97.8333,125.667 99.5,125C 100.366,119.108 100.7,113.108 100.5,107C 99.2125,102.785 96.3792,100.285 92,99.5C 90.887,98.2396 90.7203,97.073 91.5,96C 97.9972,93.7052 104.664,93.0385 111.5,94C 115.561,95.5744 119.228,97.7411 122.5,100.5C 133.094,97.081 143.928,94.7477 155,93.5C 158.93,93.7538 162.43,95.0871 165.5,97.5C 166.896,95.0284 167.73,92.3617 168,89.5C 177.354,82.3099 185.854,74.3099 193.5,65.5 Z M 119.5,104.5 C 121.861,105.435 124.028,106.768 126,108.5C 126.099,118.806 124.433,128.806 121,138.5C 119.122,140.043 117.622,141.876 116.5,144C 115.552,144.483 114.552,144.649 113.5,144.5C 113.101,130.732 115.101,117.399 119.5,104.5 Z M 147.5,106.5 C 143.272,107.129 140.272,109.462 138.5,113.5C 136.962,124.49 140.795,127.157 150,121.5C 151.711,116.953 152.378,112.286 152,107.5C 150.644,106.62 149.144,106.286 147.5,106.5 Z M 200.5,129.5 C 198.681,130.936 198.348,132.603 199.5,134.5C 201.931,133.64 203.264,131.973 203.5,129.5C 202.5,129.5 201.5,129.5 200.5,129.5 Z M 141.5,134.5 C 137.76,137.643 136.593,141.643 138,146.5C 140.609,143.617 142.442,140.283 143.5,136.5C 143.145,135.478 142.478,134.811 141.5,134.5 Z M 146.5,146.5 C 148.273,145.686 148.773,144.352 148,142.5C 146.812,143.563 146.312,144.897 146.5,146.5 Z M 118.5,147.5 C 115.827,150.842 113.661,154.508 112,158.5C 111.333,166.833 111.333,175.167 112,183.5C 112.219,184.938 112.719,186.271 113.5,187.5C 114.192,186.975 114.692,186.308 115,185.5C 116.074,177.652 117.24,169.818 118.5,162C 117.516,160.18 117.683,158.68 119,157.5C 119.315,154.628 119.815,151.795 120.5,149C 120.164,147.97 119.497,147.47 118.5,147.5 Z M 188.5,147.5 C 186.257,148.084 184.257,149.25 182.5,151C 183.047,151.925 183.713,152.758 184.5,153.5C 185.833,152.5 187.167,151.5 188.5,150.5C 189.653,149.313 189.653,148.313 188.5,147.5 Z M 97.5,151.5 C 94.8156,156.923 92.8156,162.256 91.5,167.5C 97.3499,163.543 99.3499,158.21 97.5,151.5 Z M 147.5,158.5 C 143.095,162.574 139.428,167.24 136.5,172.5C 138.212,181.257 142.045,188.924 148,195.5C 149.343,184.504 149.843,173.838 149.5,163.5C 149.564,161.443 148.898,159.777 147.5,158.5 Z M 184.5,164.5 C 180.63,166.626 179.463,169.626 181,173.5C 184.781,171.224 187.615,168.224 189.5,164.5C 187.833,164.5 186.167,164.5 184.5,164.5 Z"/></g>
<g><path style="opacity:0.616" fill="#fb0000" d="M 315.5,129.5 C 316.117,129.611 316.617,129.944 317,130.5C 320.47,148.675 322.137,167.009 322,185.5C 321.129,189.984 319.796,194.317 318,198.5C 318.395,183.511 318.395,168.511 318,153.5C 316.91,145.52 316.076,137.52 315.5,129.5 Z"/></g>
<g><path style="opacity:0.748" fill="#fb0000" d="M 161.5,305.5 C 163.833,305.5 166.167,305.5 168.5,305.5C 169.936,306.429 171.269,307.595 172.5,309C 167.5,309.667 162.5,309.667 157.5,309C 158.731,307.595 160.064,306.429 161.5,305.5 Z"/></g>
<g><path style="opacity:0.024" fill="#fe0000" d="M 191.5,306.5 C 190.833,307.167 190.833,307.167 191.5,306.5 Z"/></g>
</svg>
